# xmcd
#
# Track frame offsets:
#	150
#	12672
#	29587
#	42187
#	53110
#	59762
#	71947
#	84800
#	100657
#	111725
#	121650
#	137817
#	149140
#	161270
#
# Disc length: 2293 seconds
#
# Revision: 1
# Processed by: cddbd v1.5.2PL0 Copyright (c) Steve Scherf et al.
# Submitted via: audiograbber 1.83.01
#
DISCID=cf08f30e
DTITLE=Bjarne Liller - Glædelig jul
DYEAR=1900
DGENRE=Christmas
TTITLE0=Julerosen
TTITLE1=Når nætterne bli'r lange
TTITLE2=Køb en nisse
TTITLE3=Klokkeklang
TTITLE4=Nissen i fingerbøllet
TTITLE5=Stille daler sneen
TTITLE6=Børn og voksne i kærlig krans
TTITLE7=Det er jul
TTITLE8=Et vinterhvidt vidunderland
TTITLE9=Sangen om Julius julemus
TTITLE10=Jul endnu engang
TTITLE11=Vi får hvid jul i år
TTITLE12=Når der er sne på havens roser
TTITLE13=Afrika
EXTD=
EXTT0=
EXTT1=
EXTT2=
EXTT3=
EXTT4=
EXTT5=
EXTT6=
EXTT7=
EXTT8=
EXTT9=
EXTT10=
EXTT11=
EXTT12=
EXTT13=
PLAYORDER=
